<?xml version="1.0" encoding="utf-8"?>
<!-- Generator: Adobe Illustrator 26.5.0, SVG Export Plug-In . SVG Version: 6.00 Build 0)  -->
<svg version="1.1" id="Layer_1" xmlns="http://www.w3.org/2000/svg" xmlns:xlink="http://www.w3.org/1999/xlink" x="0px" y="0px"
	 viewBox="0 0 360 360" style="enable-background:new 0 0 360 360;" xml:space="preserve">
<style type="text/css">
	.st0{fill:#010101;}
</style>
<g>
	<path class="st0" d="M158.87,145.82c-1.9-1.68-2.08-4.6-0.39-6.5c1.69-1.9,4.6-2.08,6.5-0.39l59.58,52.77l40.1-40.1l-91.22-91.22
		l-91.22,91.22l91.22,91.22l43.2-43.2l0.02-2.59L158.87,145.82z"/>
	<polygon class="st0" points="173.44,247.41 95,168.97 95,208.88 173.44,287.95 216.24,243.64 216.6,204.18 	"/>
	<polygon class="st0" points="225.55,234.01 251.76,206.87 251.76,168.97 225.9,194.87 	"/>
	<path class="st0" d="M218.36,264.44c0,0.01,0,0.01,0,0.02h4.6l0.25-28.04l-4.65,4.82L218.36,264.44z"/>
	<polygon class="st0" points="218.92,201.86 223.57,197.2 223.6,193.92 222.92,193.32 218.97,197.28 	"/>
	<path class="st0" d="M161.92,140.07c-0.64,0-1.27,0.26-1.73,0.77c-0.41,0.46-0.61,1.05-0.57,1.67c0.04,0.61,0.31,1.18,0.77,1.58
		l58.58,51.88l-0.01,1.3l3.96-3.96l-59.47-52.67C163.01,140.26,162.47,140.07,161.92,140.07z"/>
	<polygon class="st0" points="218.57,241.23 223.22,236.42 223.57,197.2 218.92,201.86 	"/>
	<path class="st0" d="M220.66,269.07h-0.03c-1.48-0.01-2.77-0.73-3.6-1.81l-4.29,37.52h15.85l-4.29-37.52
		C223.45,268.35,222.14,269.07,220.66,269.07z"/>
	<polygon class="st0" points="220.66,267.92 220.66,266.77 220.64,266.77 	"/>
	<path class="st0" d="M220.66,267.92c-0.01,0-0.02,0-0.03,0c-1.01-0.01-1.9-0.46-2.53-1.15h-1.02l-0.06,0.49
		c0.84,1.08,2.13,1.8,3.6,1.81h0.03c1.48,0,2.79-0.72,3.63-1.81l-0.06-0.49h-1.02C222.59,267.47,221.68,267.92,220.66,267.92z"/>
	<path class="st0" d="M220.64,266.77h-2.54c0.63,0.7,1.52,1.14,2.53,1.15c0.01,0,0.02,0,0.03,0c1.02,0,1.92-0.45,2.56-1.15h-2.56
		v1.15L220.64,266.77z"/>
</g>
</svg>
