<?xml version="1.0" encoding="utf-8"?>
<!-- Generator: Adobe Illustrator 26.5.0, SVG Export Plug-In . SVG Version: 6.00 Build 0)  -->
<svg version="1.1" id="Layer_1" xmlns="http://www.w3.org/2000/svg" xmlns:xlink="http://www.w3.org/1999/xlink" x="0px" y="0px"
	 viewBox="0 0 360 360" style="enable-background:new 0 0 360 360;" xml:space="preserve">
<style type="text/css">
	.st0{fill:#010101;}
</style>
<path class="st0" d="M335.97,233.93l-44.02-78.45l38.32-12.49c0.98-0.32,1.52-1.38,1.2-2.36c-0.32-0.98-1.38-1.52-2.36-1.2
	l-39.03,12.72l-17.98-32.04l58.17-18.95c0.98-0.32,1.52-1.38,1.2-2.36c-0.32-0.98-1.37-1.52-2.36-1.2l-58.87,19.18l-24.96-44.48
	l-0.75-1.34l-58.34,18.99l-24.62-44.39c-0.5-0.9-1.64-1.23-2.54-0.73c-0.9,0.5-1.23,1.64-0.73,2.54l24.26,43.75l-16.3,5.31
	l-4.69-8.41c-0.5-0.9-1.64-1.23-2.55-0.72c-0.9,0.5-1.23,1.64-0.72,2.55l4.34,7.77L21.56,143.54c-0.98,0.32-1.52,1.38-1.2,2.36
	c0.32,0.98,1.38,1.52,2.36,1.2l141.77-46.14l18.4,32.97l-46.13,15.51c-0.98,0.33-1.51,1.39-1.18,2.37c0.33,0.98,1.39,1.51,2.37,1.18
	l46.8-15.73l3.49,6.25L48.89,188.89c-0.98,0.32-1.52,1.38-1.2,2.36c0.26,0.79,0.99,1.29,1.78,1.29c0.19,0,0.39-0.03,0.58-0.09
	l140.04-45.61l17.9,32.07l-55.61,18.12c-0.98,0.32-1.52,1.38-1.2,2.36c0.26,0.79,0.99,1.29,1.78,1.29c0.19,0,0.39-0.03,0.58-0.09
	l56.31-18.35l24.03,43.06c0.34,0.61,0.98,0.96,1.64,0.96c0.31,0,0.62-0.08,0.91-0.24c0.9-0.5,1.23-1.64,0.72-2.55l-23.67-42.42
	l16.05-5.23l44.94,81.02c0.34,0.62,0.98,0.96,1.64,0.96c0.31,0,0.62-0.08,0.91-0.24c0.9-0.5,1.23-1.64,0.73-2.54l-44.59-80.39
	l35.84-11.68l20.2,36.74c0.34,0.62,0.98,0.97,1.64,0.97c0.3,0,0.61-0.07,0.9-0.23c0.91-0.5,1.24-1.64,0.74-2.54l-19.86-36.12
	l15.71-5.12l44.39,79.1c0.34,0.61,0.98,0.96,1.63,0.96c0.31,0,0.62-0.08,0.91-0.24C336.16,235.97,336.48,234.83,335.97,233.93z
	 M253.11,126.3l14.38-4.68v30.83L253.11,126.3z M251.27,122.96l-4.61-8.38l-0.94-33.82l20.88,37.21L251.27,122.96z M243.92,117.36
	l3.73,6.79l-36.01,11.73l-3.58-6.46L243.92,117.36z M241.84,75.78l1.05,37.97l-36.68,12.33L188.03,93.3L241.84,75.78z
	 M186.45,132.64l0.59-33.41l15.57,28.07l-16.12,5.42L186.45,132.64z M183.38,94.81l-0.55,31.33l-14.71-26.36L183.38,94.81z
	 M188.35,136.04l16.11-5.41l3.56,6.43l-16.17,5.27L188.35,136.04z M208.88,140.71v32.13l-15.17-27.19L208.88,140.71z M212.63,177.39
	v-32.03l15.05,27.13L212.63,177.39z M231.3,171.31l-17.8-32.1l35.99-11.72l17.67,32.14L231.3,171.31z M270.78,158.44l-0.1-0.18
	c0.34-0.34,0.55-0.81,0.55-1.32V126.2l15.23,27.14L270.78,158.44z"/>
</svg>
