<?xml version="1.0" encoding="utf-8"?>
<!-- Generator: Adobe Illustrator 26.5.0, SVG Export Plug-In . SVG Version: 6.00 Build 0)  -->
<svg version="1.1" id="Layer_1" xmlns="http://www.w3.org/2000/svg" xmlns:xlink="http://www.w3.org/1999/xlink" x="0px" y="0px"
	 viewBox="0 0 360 360" style="enable-background:new 0 0 360 360;" xml:space="preserve">
<style type="text/css">
	.st0{fill:#010101;}
</style>
<g>
	<g>
		<polygon class="st0" points="178.67,79.81 233.86,79.81 178.51,54.34 123.17,79.81 178.35,79.81 		"/>
	</g>
	<g>
		<polygon class="st0" points="183.37,109.29 183.72,109.4 184.08,109.29 184.08,109.51 236.8,126.5 236.8,85.85 120.88,85.85 
			120.88,129.65 183.37,109.51 		"/>
	</g>
	<g>
		<polygon class="st0" points="236.8,131.97 183.72,114.87 183.72,114.87 183.72,114.87 120.88,135.12 120.88,138.84 236.8,138.84 
					"/>
	</g>
	<g>
		<polygon class="st0" points="178.67,45.94 178.51,46.02 178.67,45.94 		"/>
	</g>
	<g>
		<rect x="53.79" y="231.56" class="st0" width="66.43" height="73.59"/>
	</g>
	<g>
		<polygon class="st0" points="178.35,45.94 178.35,45.94 178.51,46.02 		"/>
	</g>
	<g>
		<polygon class="st0" points="183.37,165.52 37.51,165.52 37.51,305.15 48.58,305.15 48.58,226.35 125.43,226.35 125.43,305.15 
			237.45,305.15 237.45,226.35 314.3,226.35 314.3,305.15 327.98,305.15 327.98,165.52 184.08,165.52 		"/>
	</g>
	<g>
		<polygon class="st0" points="242.01,133.65 242.01,144.05 115.67,144.05 115.67,136.8 44.86,159.61 322.59,159.61 		"/>
	</g>
	<g>
		<rect x="242.66" y="231.56" class="st0" width="66.43" height="73.59"/>
	</g>
	<g>
		<rect x="120.88" y="86.32" class="st0" width="115.93" height="52.1"/>
	</g>
</g>
</svg>
