<?xml version="1.0" encoding="utf-8"?>
<!-- Generator: Adobe Illustrator 27.0.0, SVG Export Plug-In . SVG Version: 6.00 Build 0)  -->
<svg version="1.1" xmlns="http://www.w3.org/2000/svg" xmlns:xlink="http://www.w3.org/1999/xlink" x="0px" y="0px"
	 viewBox="0 0 390.29 164.62" style="enable-background:new 0 0 390.29 164.62;" xml:space="preserve">
<style type="text/css">
	.st0{fill:#3D3D3D;}
	.st1{fill:none;stroke:#FFFFFF;stroke-miterlimit:10;}
</style>
<g id="Layer_2">
</g>
<g id="Layer_1">
	<path class="st0" d="M364.91,101.69c0.54-0.74,1.05-1.51,1.53-2.3c0.06-0.09,0.12-0.18,0.17-0.27c1.51-2.21,2.8-4.61,3.84-7.2
		c1.83-4.57,2.75-9.48,2.75-14.75c0-5.13-0.92-9.93-2.75-14.4c-1.83-4.47-4.4-8.35-7.7-11.65c-3.3-3.3-7.3-5.9-12-7.8
		c-4.7-1.9-9.88-2.85-15.55-2.85c-5.73,0-10.92,0.95-15.55,2.85c-4.63,1.9-8.62,4.5-11.95,7.8c-1.77,1.75-3.32,3.68-4.66,5.76
		c-0.13,0.2-0.28,0.39-0.41,0.58c-0.68,0.92-1.31,1.87-1.9,2.86c-0.38,0.57-0.75,1.14-1.1,1.74c-1.09,1.74-2.03,3.58-2.82,5.54
		c-1.8,4.47-2.7,9.27-2.7,14.4c0,5.27,0.9,10.18,2.7,14.75c1.8,4.57,4.37,8.55,7.7,11.95c3.33,3.4,7.32,6.07,11.95,8
		c4.63,1.93,9.82,2.9,15.55,2.9c5.67,0,10.85-0.97,15.55-2.9c4.7-1.93,8.7-4.6,12-8c1.83-1.88,3.42-3.96,4.8-6.2
		c0.06-0.09,0.12-0.18,0.18-0.27C364.67,102.05,364.8,101.87,364.91,101.69z M341.81,94.17c-2,0.93-4.2,1.4-6.6,1.4
		c-2.4,0-4.58-0.47-6.55-1.4c-1.97-0.93-3.65-2.22-5.05-3.85c-1.4-1.63-2.5-3.58-3.3-5.85c-0.8-2.27-1.2-4.7-1.2-7.3
		c0-2.47,0.4-4.78,1.2-6.95c0.13-0.36,0.29-0.69,0.43-1.04c1.34-1.38,2.91-2.5,4.73-3.34c1.97-0.9,4.15-1.35,6.55-1.35
		c2.4,0,4.6,0.45,6.6,1.35c2,0.9,3.7,2.12,5.1,3.65c1.4,1.53,2.5,3.38,3.3,5.55c0.8,2.17,1.2,4.48,1.2,6.95c0,2.6-0.4,5.03-1.2,7.3
		c-0.19,0.54-0.4,1.05-0.62,1.55C345.1,92.22,343.58,93.34,341.81,94.17z"/>
	<path class="st0" d="M89.55,41.67h-8.1c-2.86,0-4.76,0.96-5.73,2.85c-0.25,0.3-0.47,0.63-0.65,1c-0.05,0.06-0.1,0.12-0.14,0.19
		c-0.37,0.37-0.66,0.83-0.91,1.33c-0.13,0.19-0.25,0.38-0.36,0.59c-0.25,0.3-0.47,0.63-0.65,1c-0.8,1.06-1.23,2.5-1.23,4.37v16.07
		H53.95v-20.9c0-4.33-2.17-6.5-6.5-6.5h-8c-2.92,0-4.85,0.97-5.83,2.88c-0.25,0.3-0.47,0.63-0.65,0.99
		c-0.1,0.13-0.22,0.25-0.31,0.39c-0.3,0.33-0.54,0.7-0.75,1.12c-0.13,0.19-0.25,0.39-0.36,0.6c-0.25,0.3-0.47,0.63-0.65,0.99
		c-0.81,1.06-1.23,2.49-1.23,4.35v58.9c0,4.33,2.2,6.5,6.6,6.5h8c2.89,0,4.8-0.99,5.76-2.92c0.17-0.22,0.33-0.46,0.46-0.72
		c0.26-0.3,0.48-0.64,0.66-1.02c0.01-0.02,0.03-0.04,0.04-0.06c0.37-0.37,0.66-0.82,0.9-1.31c0.17-0.22,0.33-0.46,0.46-0.72
		c0.91-1.08,1.39-2.59,1.39-4.58V91.8h17.82v20.1c0,4.33,2.17,6.5,6.5,6.5h8.1c2.89,0,4.8-0.99,5.76-2.92
		c0.17-0.22,0.33-0.46,0.46-0.72c0.26-0.3,0.48-0.64,0.66-1.02c0.01-0.02,0.03-0.04,0.04-0.06c0.37-0.37,0.66-0.82,0.9-1.31
		c0.17-0.22,0.33-0.46,0.46-0.72c0.91-1.08,1.39-2.59,1.39-4.58v-58.9C96.05,43.84,93.88,41.67,89.55,41.67z"/>
	<path class="st0" d="M153.92,95.57h-20.2V91.2h10.42c2.95,0,4.89-1,5.86-2.94c0.17-0.23,0.33-0.47,0.46-0.73
		c0.26-0.3,0.47-0.64,0.66-1.01c0.07-0.09,0.15-0.17,0.21-0.27c0.29-0.32,0.53-0.7,0.74-1.1c0.17-0.23,0.33-0.47,0.46-0.73
		c0.91-1.07,1.39-2.58,1.39-4.55v-5c0-4.33-2.2-6.5-6.6-6.5h-13.6V64.5h15.82c2.89,0,4.8-0.99,5.76-2.92
		c0.17-0.22,0.33-0.46,0.46-0.72c0.26-0.3,0.48-0.64,0.66-1.02c0.01-0.02,0.03-0.04,0.04-0.06c0.37-0.37,0.66-0.82,0.9-1.31
		c0.17-0.22,0.33-0.46,0.46-0.72c0.91-1.08,1.39-2.59,1.39-4.58v-5c0-4.33-2.17-6.5-6.5-6.5h-33.5c-2.92,0-4.85,0.97-5.83,2.88
		c-0.25,0.3-0.47,0.63-0.65,0.99c-0.1,0.13-0.22,0.25-0.31,0.39c-0.3,0.33-0.54,0.7-0.75,1.12c-0.13,0.19-0.25,0.39-0.36,0.6
		c-0.25,0.3-0.47,0.63-0.65,0.99c-0.81,1.06-1.23,2.49-1.23,4.35v58.9c0,4.33,2.2,6.5,6.6,6.5h34.7c2.95,0,4.89-1,5.86-2.94
		c0.17-0.23,0.33-0.47,0.46-0.73c0.26-0.3,0.47-0.64,0.66-1.01c0.07-0.09,0.15-0.17,0.21-0.27c0.29-0.32,0.53-0.7,0.74-1.1
		c0.17-0.23,0.33-0.47,0.46-0.73c0.91-1.07,1.39-2.58,1.39-4.55v-5C160.52,97.74,158.32,95.57,153.92,95.57z"/>
	<path class="st0" d="M218.28,95.57h-21.5v-47.4c0-4.33-2.17-6.5-6.5-6.5h-8c-2.92,0-4.85,0.97-5.83,2.88
		c-0.25,0.3-0.47,0.63-0.65,0.99c-0.1,0.13-0.22,0.25-0.31,0.39c-0.3,0.33-0.54,0.7-0.75,1.12c-0.13,0.19-0.25,0.39-0.36,0.6
		c-0.25,0.3-0.47,0.63-0.65,0.99c-0.81,1.06-1.23,2.49-1.23,4.35v58.9c0,4.33,2.2,6.5,6.6,6.5h36c2.95,0,4.89-1,5.86-2.94
		c0.17-0.23,0.33-0.47,0.46-0.73c0.26-0.3,0.47-0.64,0.66-1.01c0.07-0.09,0.15-0.17,0.21-0.27c0.29-0.32,0.53-0.7,0.74-1.1
		c0.17-0.23,0.33-0.47,0.46-0.73c0.91-1.07,1.39-2.58,1.39-4.55v-5C224.88,97.74,222.68,95.57,218.28,95.57z"/>
	<path class="st0" d="M282.64,95.57h-21.5v-47.4c0-4.33-2.17-6.5-6.5-6.5h-8c-2.92,0-4.85,0.97-5.83,2.88
		c-0.25,0.3-0.47,0.63-0.65,0.99c-0.1,0.13-0.22,0.25-0.31,0.39c-0.3,0.33-0.54,0.7-0.75,1.12c-0.13,0.19-0.25,0.39-0.36,0.6
		c-0.25,0.3-0.47,0.63-0.65,0.99c-0.81,1.06-1.23,2.49-1.23,4.35v58.9c0,4.33,2.2,6.5,6.6,6.5h36c2.95,0,4.89-1,5.86-2.94
		c0.17-0.23,0.33-0.47,0.46-0.73c0.26-0.3,0.47-0.64,0.66-1.01c0.07-0.09,0.15-0.17,0.21-0.27c0.29-0.32,0.53-0.7,0.74-1.1
		c0.17-0.23,0.33-0.47,0.46-0.73c0.91-1.07,1.39-2.58,1.39-4.55v-5C289.24,97.74,287.04,95.57,282.64,95.57z"/>
	<path d="M33.55,47.49c0-4.33,2.2-6.5,6.6-6.5h8c4.33,0,6.5,2.17,6.5,6.5v20.9h21v-20.9c0-4.33,2.17-6.5,6.5-6.5h8.1
		c4.33,0,6.5,2.17,6.5,6.5v58.9c0,4.33-2.17,6.5-6.5,6.5h-8.1c-4.33,0-6.5-2.17-6.5-6.5v-20.1h-21v20.1c0,4.33-2.17,6.5-6.5,6.5h-8
		c-4.4,0-6.6-2.17-6.6-6.5V47.49z"/>
	<path d="M113.32,47.49c0-4.33,2.2-6.5,6.6-6.5h33.5c4.33,0,6.5,2.17,6.5,6.5v5c0,4.33-2.17,6.5-6.5,6.5h-19v8.7h13.6
		c4.4,0,6.6,2.17,6.6,6.5v5c0,4.33-2.2,6.5-6.6,6.5h-13.6v9.2h20.2c4.4,0,6.6,2.17,6.6,6.5v5c0,4.33-2.2,6.5-6.6,6.5h-34.7
		c-4.4,0-6.6-2.17-6.6-6.5V47.49z"/>
	<path d="M176.38,47.49c0-4.33,2.2-6.5,6.6-6.5h8c4.33,0,6.5,2.17,6.5,6.5v47.4h21.5c4.4,0,6.6,2.17,6.6,6.5v5
		c0,4.33-2.2,6.5-6.6,6.5h-36c-4.4,0-6.6-2.17-6.6-6.5V47.49z"/>
	<path d="M240.74,47.49c0-4.33,2.2-6.5,6.6-6.5h8c4.33,0,6.5,2.17,6.5,6.5v47.4h21.5c4.4,0,6.6,2.17,6.6,6.5v5
		c0,4.33-2.2,6.5-6.6,6.5h-36c-4.4,0-6.6-2.17-6.6-6.5V47.49z"/>
	<path d="M298.01,76.49c0-5.13,0.9-9.93,2.7-14.4c1.8-4.47,4.37-8.35,7.7-11.65c3.33-3.3,7.32-5.9,11.95-7.8
		c4.63-1.9,9.82-2.85,15.55-2.85c5.67,0,10.85,0.95,15.55,2.85c4.7,1.9,8.7,4.5,12,7.8c3.3,3.3,5.87,7.18,7.7,11.65
		c1.83,4.47,2.75,9.27,2.75,14.4c0,5.27-0.92,10.18-2.75,14.75c-1.83,4.57-4.4,8.55-7.7,11.95c-3.3,3.4-7.3,6.07-12,8
		c-4.7,1.93-9.88,2.9-15.55,2.9c-5.73,0-10.92-0.97-15.55-2.9c-4.63-1.93-8.62-4.6-11.95-8c-3.33-3.4-5.9-7.38-7.7-11.95
		C298.91,86.67,298.01,81.76,298.01,76.49z M319.81,76.49c0,2.6,0.4,5.03,1.2,7.3c0.8,2.27,1.9,4.22,3.3,5.85
		c1.4,1.63,3.08,2.92,5.05,3.85c1.97,0.93,4.15,1.4,6.55,1.4c2.4,0,4.6-0.47,6.6-1.4c2-0.93,3.7-2.22,5.1-3.85
		c1.4-1.63,2.5-3.58,3.3-5.85c0.8-2.27,1.2-4.7,1.2-7.3c0-2.47-0.4-4.78-1.2-6.95c-0.8-2.17-1.9-4.02-3.3-5.55
		c-1.4-1.53-3.1-2.75-5.1-3.65c-2-0.9-4.2-1.35-6.6-1.35c-2.4,0-4.58,0.45-6.55,1.35c-1.97,0.9-3.65,2.12-5.05,3.65
		c-1.4,1.53-2.5,3.38-3.3,5.55C320.21,71.71,319.81,74.02,319.81,76.49z"/>
</g>
<g id="Layer_3">
	<g>
		<path class="st1" d="M90.25,41.33h-8.1c-2.37,0-4.07,0.67-5.14,1.97c-0.53,0.42-0.96,0.94-1.29,1.56c-0.25,0.3-0.47,0.63-0.65,1
			c-0.05,0.06-0.1,0.12-0.14,0.19c-0.37,0.37-0.66,0.83-0.91,1.33c-0.13,0.19-0.25,0.38-0.36,0.59c-0.25,0.3-0.47,0.63-0.65,1
			c-0.8,1.06-1.23,2.5-1.23,4.37v15.39H54.65v-20.9c0-4.33-2.17-6.5-6.5-6.5h-8c-2.42,0-4.16,0.68-5.24,2
			c-0.53,0.42-0.96,0.94-1.29,1.56c-0.25,0.3-0.47,0.63-0.65,0.99c-0.1,0.13-0.22,0.25-0.31,0.39c-0.3,0.33-0.54,0.7-0.75,1.12
			c-0.13,0.19-0.25,0.39-0.36,0.6c-0.25,0.3-0.47,0.63-0.65,0.99c-0.81,1.06-1.23,2.49-1.23,4.35v58.9c0,4.33,2.2,6.5,6.6,6.5h8
			c2.89,0,4.8-0.99,5.76-2.92c0.17-0.22,0.33-0.46,0.46-0.72c0.26-0.3,0.48-0.64,0.66-1.02c0.01-0.02,0.03-0.04,0.04-0.06
			c0.37-0.37,0.66-0.82,0.9-1.31c0.17-0.22,0.33-0.46,0.46-0.72c0.01-0.01,0.02-0.03,0.03-0.04c1.36-1.07,2.07-2.79,2.07-5.22V92.14
			h17.12v20.1c0,4.33,2.17,6.5,6.5,6.5h8.1c2.89,0,4.8-0.99,5.76-2.92c0.17-0.22,0.33-0.46,0.46-0.72c0.26-0.3,0.48-0.64,0.66-1.02
			c0.01-0.02,0.03-0.04,0.04-0.06c0.37-0.37,0.66-0.82,0.9-1.31c0.17-0.22,0.33-0.46,0.46-0.72c0.01-0.01,0.02-0.03,0.03-0.04
			c1.36-1.07,2.07-2.79,2.07-5.22v-58.9C96.75,43.5,94.58,41.33,90.25,41.33z"/>
		<path class="st1" d="M154.62,95.23h-20.2v-3.69h9.72c2.95,0,4.89-1,5.86-2.94c0.17-0.23,0.33-0.47,0.46-0.73
			c0.26-0.3,0.47-0.64,0.66-1.01c0.07-0.09,0.15-0.17,0.21-0.27c0.29-0.32,0.53-0.7,0.74-1.1c0.17-0.23,0.33-0.47,0.46-0.73
			c0.01-0.01,0.01-0.02,0.02-0.03c1.36-1.07,2.07-2.78,2.07-5.2v-5c0-4.33-2.2-6.5-6.6-6.5h-13.6v-3.19h15.12
			c2.89,0,4.8-0.99,5.76-2.92c0.17-0.22,0.33-0.46,0.46-0.72c0.26-0.3,0.48-0.64,0.66-1.02c0.01-0.02,0.03-0.04,0.04-0.06
			c0.37-0.37,0.66-0.82,0.9-1.31c0.17-0.22,0.33-0.46,0.46-0.72c0.01-0.01,0.02-0.03,0.03-0.04c1.36-1.07,2.07-2.79,2.07-5.22v-5
			c0-4.33-2.17-6.5-6.5-6.5h-33.5c-2.42,0-4.16,0.68-5.24,2c-0.53,0.42-0.96,0.94-1.29,1.56c-0.25,0.3-0.47,0.63-0.65,0.99
			c-0.1,0.13-0.22,0.25-0.31,0.39c-0.3,0.33-0.54,0.7-0.75,1.12c-0.13,0.19-0.25,0.39-0.36,0.6c-0.25,0.3-0.47,0.63-0.65,0.99
			c-0.81,1.06-1.23,2.49-1.23,4.35v58.9c0,4.33,2.2,6.5,6.6,6.5h34.7c2.95,0,4.89-1,5.86-2.94c0.17-0.23,0.33-0.47,0.46-0.73
			c0.26-0.3,0.47-0.64,0.66-1.01c0.07-0.09,0.15-0.17,0.21-0.27c0.29-0.32,0.53-0.7,0.74-1.1c0.17-0.23,0.33-0.47,0.46-0.73
			c0.01-0.01,0.01-0.02,0.02-0.03c1.36-1.07,2.07-2.78,2.07-5.2v-5C161.22,97.4,159.02,95.23,154.62,95.23z"/>
		<path class="st1" d="M218.98,95.23h-21.5v-47.4c0-4.33-2.17-6.5-6.5-6.5h-8c-2.42,0-4.16,0.68-5.24,2
			c-0.53,0.42-0.96,0.94-1.29,1.56c-0.25,0.3-0.47,0.63-0.65,0.99c-0.1,0.13-0.22,0.25-0.31,0.39c-0.3,0.33-0.54,0.7-0.75,1.12
			c-0.13,0.19-0.25,0.39-0.36,0.6c-0.25,0.3-0.47,0.63-0.65,0.99c-0.81,1.06-1.23,2.49-1.23,4.35v58.9c0,4.33,2.2,6.5,6.6,6.5h36
			c2.95,0,4.89-1,5.86-2.94c0.17-0.23,0.33-0.47,0.46-0.73c0.26-0.3,0.47-0.64,0.66-1.01c0.07-0.09,0.15-0.17,0.21-0.27
			c0.29-0.32,0.53-0.7,0.74-1.1c0.17-0.23,0.33-0.47,0.46-0.73c0.01-0.01,0.01-0.02,0.02-0.03c1.36-1.07,2.07-2.78,2.07-5.2v-5
			C225.58,97.4,223.38,95.23,218.98,95.23z"/>
		<path class="st1" d="M283.34,95.23h-21.5v-47.4c0-4.33-2.17-6.5-6.5-6.5h-8c-2.42,0-4.16,0.68-5.24,2
			c-0.53,0.42-0.96,0.94-1.29,1.56c-0.25,0.3-0.47,0.63-0.65,0.99c-0.1,0.13-0.22,0.25-0.31,0.39c-0.3,0.33-0.54,0.7-0.75,1.12
			c-0.13,0.19-0.25,0.39-0.36,0.6c-0.25,0.3-0.47,0.63-0.65,0.99c-0.81,1.06-1.23,2.49-1.23,4.35v58.9c0,4.33,2.2,6.5,6.6,6.5h36
			c2.95,0,4.89-1,5.86-2.94c0.17-0.23,0.33-0.47,0.46-0.73c0.26-0.3,0.47-0.64,0.66-1.01c0.07-0.09,0.15-0.17,0.21-0.27
			c0.29-0.32,0.53-0.7,0.74-1.1c0.17-0.23,0.33-0.47,0.46-0.73c0.01-0.01,0.01-0.02,0.02-0.03c1.36-1.07,2.07-2.78,2.07-5.2v-5
			C289.94,97.4,287.74,95.23,283.34,95.23z"/>
		<path class="st1" d="M373.91,76.83c0-5.13-0.92-9.93-2.75-14.4c-1.83-4.47-4.4-8.35-7.7-11.65c-3.3-3.3-7.3-5.9-12-7.8
			c-4.7-1.9-9.88-2.85-15.55-2.85c-5.73,0-10.92,0.95-15.55,2.85c-4.63,1.9-8.62,4.5-11.95,7.8c-0.08,0.07-0.14,0.15-0.22,0.23
			c-0.16,0.15-0.32,0.3-0.48,0.45c-1.77,1.75-3.32,3.68-4.66,5.76c-0.13,0.2-0.28,0.39-0.41,0.58c-0.68,0.92-1.31,1.87-1.9,2.86
			c-0.38,0.57-0.75,1.14-1.1,1.74c-1.09,1.74-2.03,3.58-2.82,5.54c-1.8,4.47-2.7,9.27-2.7,14.4c0,5.27,0.9,10.18,2.7,14.75
			c1.8,4.57,4.37,8.55,7.7,11.95c3.33,3.4,7.32,6.07,11.95,8c4.63,1.93,9.82,2.9,15.55,2.9c5.67,0,10.85-0.97,15.55-2.9
			c4.7-1.93,8.7-4.6,12-8c1.83-1.88,3.42-3.96,4.8-6.2c0.06-0.09,0.12-0.18,0.18-0.27c0.12-0.18,0.24-0.35,0.36-0.53
			c0.13-0.18,0.24-0.37,0.36-0.55c2.43-2.92,4.4-6.22,5.88-9.91C372.99,87.01,373.91,82.1,373.91,76.83z M347.02,89.64
			c-0.19,0.54-0.4,1.05-0.62,1.55c-0.09,0.09-0.18,0.17-0.27,0.26c-1.08,0.95-2.28,1.75-3.63,2.38c-2,0.93-4.2,1.4-6.6,1.4
			c-2.4,0-4.58-0.47-6.55-1.4c-1.97-0.93-3.65-2.22-5.05-3.85c-1.4-1.63-2.5-3.58-3.3-5.85c-0.8-2.27-1.2-4.7-1.2-7.3
			c0-2.47,0.4-4.78,1.2-6.95c0.13-0.35,0.28-0.67,0.42-1c1.18-1.08,2.52-1.99,4.05-2.69c1.97-0.9,4.15-1.35,6.55-1.35
			c2.4,0,4.6,0.45,6.6,1.35c2,0.9,3.7,2.12,5.1,3.65c1.4,1.53,2.5,3.38,3.3,5.55c0.8,2.17,1.2,4.48,1.2,6.95
			C348.22,84.94,347.82,87.37,347.02,89.64z"/>
	</g>
</g>
</svg>
