<?xml version="1.0" encoding="utf-8"?>
<!-- Generator: Adobe Illustrator 26.5.0, SVG Export Plug-In . SVG Version: 6.00 Build 0)  -->
<svg version="1.1" id="Layer_1" xmlns="http://www.w3.org/2000/svg" xmlns:xlink="http://www.w3.org/1999/xlink" x="0px" y="0px"
	 viewBox="0 0 360 360" style="enable-background:new 0 0 360 360;" xml:space="preserve">
<style type="text/css">
	.st0{fill:#010101;}
</style>
<path class="st0" d="M326.55,63.52H20.06c-0.4,0-0.73,0.33-0.73,0.73v218.4c0,0.4,0.33,0.73,0.73,0.73h306.49
	c0.4,0,0.73-0.33,0.73-0.73V64.25C327.28,63.85,326.95,63.52,326.55,63.52z M31.71,259.35c-0.4,0-0.73-0.33-0.73-0.73v-182
	c0-0.4,0.33-0.73,0.73-0.73h19.28v28.03H37.9c-0.4,0-0.73,0.33-0.73,0.73v2.55c0,0.4,0.33,0.73,0.73,0.73h13.09v23.81H37.9
	c-0.4,0-0.73,0.33-0.73,0.73v2.55c0,0.4,0.33,0.73,0.73,0.73h13.09v23.81H37.9c-0.4,0-0.73,0.33-0.73,0.73v2.55
	c0,0.4,0.33,0.73,0.73,0.73h13.09v23.81H37.9c-0.4,0-0.73,0.33-0.73,0.73v2.55c0,0.4,0.33,0.73,0.73,0.73h13.09v23.81H37.9
	c-0.4,0-0.73,0.33-0.73,0.73v2.55c0,0.4,0.33,0.73,0.73,0.73h13.09v23.81H37.9c-0.4,0-0.73,0.33-0.73,0.73v2.55
	c0,0.4,0.33,0.73,0.73,0.73h13.09v12.38H31.71z M53.17,259.35v-12.38h13.12c0.4,0,0.73-0.33,0.73-0.73v-2.55
	c0-0.4-0.33-0.73-0.73-0.73H53.17v-23.81h13.12c0.4,0,0.73-0.33,0.73-0.73v-2.55c0-0.4-0.33-0.73-0.73-0.73H53.17v-23.81h13.12
	c0.4,0,0.73-0.33,0.73-0.73v-2.55c0-0.4-0.33-0.73-0.73-0.73H53.17v-23.81h13.12c0.4,0,0.73-0.33,0.73-0.73v-2.55
	c0-0.4-0.33-0.73-0.73-0.73H53.17v-23.81h13.12c0.4,0,0.73-0.33,0.73-0.73v-2.55c0-0.4-0.33-0.73-0.73-0.73H53.17v-23.81h13.12
	c0.4,0,0.73-0.33,0.73-0.73v-2.55c0-0.4-0.33-0.73-0.73-0.73H53.17V75.89H85.2v14.2H72.12c-0.4,0-0.73,0.33-0.73,0.73v2.55
	c0,0.4,0.33,0.73,0.73,0.73H85.2v23.81H72.12c-0.4,0-0.73,0.33-0.73,0.73v2.55c0,0.4,0.33,0.73,0.73,0.73H85.2v23.81H72.12
	c-0.4,0-0.73,0.33-0.73,0.73v2.55c0,0.4,0.33,0.73,0.73,0.73H85.2v23.81H72.12c-0.4,0-0.73,0.33-0.73,0.73v2.55
	c0,0.4,0.33,0.73,0.73,0.73H85.2v23.81H72.12c-0.4,0-0.73,0.33-0.73,0.73v2.55c0,0.4,0.33,0.73,0.73,0.73H85.2v23.81H72.12
	c-0.4,0-0.73,0.33-0.73,0.73v2.55c0,0.4,0.33,0.73,0.73,0.73H85.2v26.21H53.17z M87.39,259.35v-26.21h13.12
	c0.4,0,0.73-0.33,0.73-0.73v-2.55c0-0.4-0.33-0.73-0.73-0.73H87.39v-23.81h13.12c0.4,0,0.73-0.33,0.73-0.73v-2.55
	c0-0.4-0.33-0.73-0.73-0.73H87.39v-23.81h13.12c0.4,0,0.73-0.33,0.73-0.73v-2.55c0-0.4-0.33-0.73-0.73-0.73H87.39v-23.81h13.12
	c0.4,0,0.73-0.33,0.73-0.73v-2.55c0-0.4-0.33-0.73-0.73-0.73H87.39V121.9h13.12c0.4,0,0.73-0.33,0.73-0.73v-2.55
	c0-0.4-0.33-0.73-0.73-0.73H87.39V94.09h13.12c0.4,0,0.73-0.33,0.73-0.73v-2.55c0-0.4-0.33-0.73-0.73-0.73H87.39v-14.2h35.67v28.03
	h-13.09c-0.4,0-0.73,0.33-0.73,0.73v2.55c0,0.4,0.33,0.73,0.73,0.73h13.09v23.81h-13.09c-0.4,0-0.73,0.33-0.73,0.73v2.55
	c0,0.4,0.33,0.73,0.73,0.73h13.09v23.81h-13.09c-0.4,0-0.73,0.33-0.73,0.73v2.55c0,0.4,0.33,0.73,0.73,0.73h13.09v23.81h-13.09
	c-0.4,0-0.73,0.33-0.73,0.73v2.55c0,0.4,0.33,0.73,0.73,0.73h13.09v23.81h-13.09c-0.4,0-0.73,0.33-0.73,0.73v2.55
	c0,0.4,0.33,0.73,0.73,0.73h13.09v23.81h-13.09c-0.4,0-0.73,0.33-0.73,0.73v2.55c0,0.4,0.33,0.73,0.73,0.73h13.09v12.38H87.39z
	 M125.24,259.35v-12.38h13.12c0.4,0,0.73-0.33,0.73-0.73v-2.55c0-0.4-0.33-0.73-0.73-0.73h-13.12v-23.81h13.12
	c0.4,0,0.73-0.33,0.73-0.73v-2.55c0-0.4-0.33-0.73-0.73-0.73h-13.12v-23.81h13.12c0.4,0,0.73-0.33,0.73-0.73v-2.55
	c0-0.4-0.33-0.73-0.73-0.73h-13.12v-23.81h13.12c0.4,0,0.73-0.33,0.73-0.73v-2.55c0-0.4-0.33-0.73-0.73-0.73h-13.12v-23.81h13.12
	c0.4,0,0.73-0.33,0.73-0.73v-2.55c0-0.4-0.33-0.73-0.73-0.73h-13.12v-23.81h13.12c0.4,0,0.73-0.33,0.73-0.73v-2.55
	c0-0.4-0.33-0.73-0.73-0.73h-13.12V75.89h32.03v14.2h-13.09c-0.4,0-0.73,0.33-0.73,0.73v2.55c0,0.4,0.33,0.73,0.73,0.73h13.09v23.81
	h-13.09c-0.4,0-0.73,0.33-0.73,0.73v2.55c0,0.4,0.33,0.73,0.73,0.73h13.09v23.81h-13.09c-0.4,0-0.73,0.33-0.73,0.73v2.55
	c0,0.4,0.33,0.73,0.73,0.73h13.09v23.81h-13.09c-0.4,0-0.73,0.33-0.73,0.73v2.55c0,0.4,0.33,0.73,0.73,0.73h13.09v23.81h-13.09
	c-0.4,0-0.73,0.33-0.73,0.73v2.55c0,0.4,0.33,0.73,0.73,0.73h13.09v23.81h-13.09c-0.4,0-0.73,0.33-0.73,0.73v2.55
	c0,0.4,0.33,0.73,0.73,0.73h13.09v26.21H125.24z M159.46,259.35v-26.21h13.12c0.4,0,0.73-0.33,0.73-0.73v-2.55
	c0-0.4-0.33-0.73-0.73-0.73h-13.12v-23.81h13.12c0.4,0,0.73-0.33,0.73-0.73v-2.55c0-0.4-0.33-0.73-0.73-0.73h-13.12v-23.81h13.12
	c0.4,0,0.73-0.33,0.73-0.73v-2.55c0-0.4-0.33-0.73-0.73-0.73h-13.12v-23.81h13.12c0.4,0,0.73-0.33,0.73-0.73v-2.55
	c0-0.4-0.33-0.73-0.73-0.73h-13.12V121.9h13.12c0.4,0,0.73-0.33,0.73-0.73v-2.55c0-0.4-0.33-0.73-0.73-0.73h-13.12V94.09h13.12
	c0.4,0,0.73-0.33,0.73-0.73v-2.55c0-0.4-0.33-0.73-0.73-0.73h-13.12v-14.2h33.49v28.03h-13.09c-0.4,0-0.73,0.33-0.73,0.73v2.55
	c0,0.4,0.33,0.73,0.73,0.73h13.09v23.81h-13.09c-0.4,0-0.73,0.33-0.73,0.73v2.55c0,0.4,0.33,0.73,0.73,0.73h13.09v23.81h-13.09
	c-0.4,0-0.73,0.33-0.73,0.73v2.55c0,0.4,0.33,0.73,0.73,0.73h13.09v23.81h-13.09c-0.4,0-0.73,0.33-0.73,0.73v2.55
	c0,0.4,0.33,0.73,0.73,0.73h13.09v23.81h-13.09c-0.4,0-0.73,0.33-0.73,0.73v2.55c0,0.4,0.33,0.73,0.73,0.73h13.09v23.81h-13.09
	c-0.4,0-0.73,0.33-0.73,0.73v2.55c0,0.4,0.33,0.73,0.73,0.73h13.09v12.38H159.46z M195.13,259.35v-12.38h13.12
	c0.4,0,0.73-0.33,0.73-0.73v-2.55c0-0.4-0.33-0.73-0.73-0.73h-13.12v-23.81h13.12c0.4,0,0.73-0.33,0.73-0.73v-2.55
	c0-0.4-0.33-0.73-0.73-0.73h-13.12v-23.81h13.12c0.4,0,0.73-0.33,0.73-0.73v-2.55c0-0.4-0.33-0.73-0.73-0.73h-13.12v-23.81h13.12
	c0.4,0,0.73-0.33,0.73-0.73v-2.55c0-0.4-0.33-0.73-0.73-0.73h-13.12v-23.81h13.12c0.4,0,0.73-0.33,0.73-0.73v-2.55
	c0-0.4-0.33-0.73-0.73-0.73h-13.12v-23.81h13.12c0.4,0,0.73-0.33,0.73-0.73v-2.55c0-0.4-0.33-0.73-0.73-0.73h-13.12V75.89h32.03
	v14.2h-13.09c-0.4,0-0.73,0.33-0.73,0.73v2.55c0,0.4,0.33,0.73,0.73,0.73h13.09v23.81h-13.09c-0.4,0-0.73,0.33-0.73,0.73v2.55
	c0,0.4,0.33,0.73,0.73,0.73h13.09v23.81h-13.09c-0.4,0-0.73,0.33-0.73,0.73v2.55c0,0.4,0.33,0.73,0.73,0.73h13.09v23.81h-13.09
	c-0.4,0-0.73,0.33-0.73,0.73v2.55c0,0.4,0.33,0.73,0.73,0.73h13.09v23.81h-13.09c-0.4,0-0.73,0.33-0.73,0.73v2.55
	c0,0.4,0.33,0.73,0.73,0.73h13.09v23.81h-13.09c-0.4,0-0.73,0.33-0.73,0.73v2.55c0,0.4,0.33,0.73,0.73,0.73h13.09v26.21H195.13z
	 M229.35,259.35v-26.21h13.12c0.4,0,0.73-0.33,0.73-0.73v-2.55c0-0.4-0.33-0.73-0.73-0.73h-13.12v-23.81h13.12
	c0.4,0,0.73-0.33,0.73-0.73v-2.55c0-0.4-0.33-0.73-0.73-0.73h-13.12v-23.81h13.12c0.4,0,0.73-0.33,0.73-0.73v-2.55
	c0-0.4-0.33-0.73-0.73-0.73h-13.12v-23.81h13.12c0.4,0,0.73-0.33,0.73-0.73v-2.55c0-0.4-0.33-0.73-0.73-0.73h-13.12V121.9h13.12
	c0.4,0,0.73-0.33,0.73-0.73v-2.55c0-0.4-0.33-0.73-0.73-0.73h-13.12V94.09h13.12c0.4,0,0.73-0.33,0.73-0.73v-2.55
	c0-0.4-0.33-0.73-0.73-0.73h-13.12v-14.2h29.85v28.03h-13.09c-0.4,0-0.73,0.33-0.73,0.73v2.55c0,0.4,0.33,0.73,0.73,0.73h13.09
	v23.81h-13.09c-0.4,0-0.73,0.33-0.73,0.73v2.55c0,0.4,0.33,0.73,0.73,0.73h13.09v23.81h-13.09c-0.4,0-0.73,0.33-0.73,0.73v2.55
	c0,0.4,0.33,0.73,0.73,0.73h13.09v23.81h-13.09c-0.4,0-0.73,0.33-0.73,0.73v2.55c0,0.4,0.33,0.73,0.73,0.73h13.09v23.81h-13.09
	c-0.4,0-0.73,0.33-0.73,0.73v2.55c0,0.4,0.33,0.73,0.73,0.73h13.09v23.81h-13.09c-0.4,0-0.73,0.33-0.73,0.73v2.55
	c0,0.4,0.33,0.73,0.73,0.73h13.09v12.38H229.35z M261.38,259.35v-12.38h13.12c0.4,0,0.73-0.33,0.73-0.73v-2.55
	c0-0.4-0.33-0.73-0.73-0.73h-13.12v-23.81h13.12c0.4,0,0.73-0.33,0.73-0.73v-2.55c0-0.4-0.33-0.73-0.73-0.73h-13.12v-23.81h13.12
	c0.4,0,0.73-0.33,0.73-0.73v-2.55c0-0.4-0.33-0.73-0.73-0.73h-13.12v-23.81h13.12c0.4,0,0.73-0.33,0.73-0.73v-2.55
	c0-0.4-0.33-0.73-0.73-0.73h-13.12v-23.81h13.12c0.4,0,0.73-0.33,0.73-0.73v-2.55c0-0.4-0.33-0.73-0.73-0.73h-13.12v-23.81h13.12
	c0.4,0,0.73-0.33,0.73-0.73v-2.55c0-0.4-0.33-0.73-0.73-0.73h-13.12V75.89h32.03v14.2h-13.09c-0.4,0-0.73,0.33-0.73,0.73v2.55
	c0,0.4,0.33,0.73,0.73,0.73h13.09v23.81h-13.09c-0.4,0-0.73,0.33-0.73,0.73v2.55c0,0.4,0.33,0.73,0.73,0.73h13.09v23.81h-13.09
	c-0.4,0-0.73,0.33-0.73,0.73v2.55c0,0.4,0.33,0.73,0.73,0.73h13.09v23.81h-13.09c-0.4,0-0.73,0.33-0.73,0.73v2.55
	c0,0.4,0.33,0.73,0.73,0.73h13.09v23.81h-13.09c-0.4,0-0.73,0.33-0.73,0.73v2.55c0,0.4,0.33,0.73,0.73,0.73h13.09v23.81h-13.09
	c-0.4,0-0.73,0.33-0.73,0.73v2.55c0,0.4,0.33,0.73,0.73,0.73h13.09v26.21H261.38z M315.63,258.62c0,0.4-0.33,0.73-0.73,0.73h-19.31
	v-26.21h13.12c0.4,0,0.73-0.33,0.73-0.73v-2.55c0-0.4-0.33-0.73-0.73-0.73h-13.12v-23.81h13.12c0.4,0,0.73-0.33,0.73-0.73v-2.55
	c0-0.4-0.33-0.73-0.73-0.73h-13.12v-23.81h13.12c0.4,0,0.73-0.33,0.73-0.73v-2.55c0-0.4-0.33-0.73-0.73-0.73h-13.12v-23.81h13.12
	c0.4,0,0.73-0.33,0.73-0.73v-2.55c0-0.4-0.33-0.73-0.73-0.73h-13.12V121.9h13.12c0.4,0,0.73-0.33,0.73-0.73v-2.55
	c0-0.4-0.33-0.73-0.73-0.73h-13.12V94.09h13.12c0.4,0,0.73-0.33,0.73-0.73v-2.55c0-0.4-0.33-0.73-0.73-0.73h-13.12v-14.2h19.31
	c0.4,0,0.73,0.33,0.73,0.73V258.62z"/>
</svg>
