<?xml version="1.0" encoding="utf-8"?>
<!-- Generator: Adobe Illustrator 26.5.0, SVG Export Plug-In . SVG Version: 6.00 Build 0)  -->
<svg version="1.1" id="Layer_1" xmlns="http://www.w3.org/2000/svg" xmlns:xlink="http://www.w3.org/1999/xlink" x="0px" y="0px"
	 viewBox="0 0 360 360" style="enable-background:new 0 0 360 360;" xml:space="preserve">
<style type="text/css">
	.st0{fill:#010101;}
</style>
<g>
	<path id="path20177_00000179628586190811066110000003510709359877209759_" class="st0" d="M113.71,140.01v-28.39h69.64V93.84
		h-67.89c4.01-10.13,13.7-18.13,20.08-22.52c4.85-3.4,9.73-6.1,14.25-8.19v23.22h17.8V39.92c-17.02,0-64.07,21.22-70.89,54.76
		c-33.5,6.8-54.53,53.64-54.53,70.7l125.44-0.04v-46.21h-17.82v28.35H65.32c2.05-4.41,4.75-9.25,8.09-14
		c4.35-6.37,12.39-16.07,22.48-20.06v26.6L113.71,140.01"/>
	<path id="path20181_00000168108055337638506610000002404311085614804098_" class="st0" d="M216.97,111.44h28.33v69.6h17.84v-67.85
		c10.09,4.01,18.13,13.7,22.52,20.05c3.34,4.85,6.08,9.75,8.17,14.27h-23.24v17.84h46.46c0-17.08-21.24-64.09-54.74-70.89
		c-6.82-33.55-53.66-54.55-70.74-54.55l0.04,125.44h46.23V147.5H209.5V62.99c4.41,2.13,9.23,4.77,14,8.08
		c6.37,4.41,16.07,12.45,20.06,22.52h-26.6L216.97,111.44"/>
	<path id="path20185_00000059275635350926046320000012774803475302054566_" class="st0" d="M246.27,215.42v28.33h-69.6v17.88h67.79
		c-3.95,10.07-13.64,18.11-19.99,22.5c-4.85,3.36-9.79,6.04-14.31,8.13v-23.18h-17.78v46.44c17.08,0,64.07-21.26,70.89-54.74
		c33.5-6.84,54.55-53.71,54.55-70.74l-125.46,0.02v46.23h17.8v-28.37h84.49c-2.03,4.45-4.71,9.25-8.04,14
		c-4.39,6.37-12.43,16.07-22.52,20.06v-26.56L246.27,215.42"/>
	<path id="path20189_00000085971918226783496720000009074215389534672314_" class="st0" d="M142.31,244.02h-28.37v-69.65H96.12
		v67.87c-10.11-3.99-18.09-13.7-22.53-20.06c-3.34-4.85-6.02-9.75-8.17-14.25h23.2v-17.84h-46.4c0,17.04,21.28,64.09,54.74,70.91
		c6.84,33.48,53.68,54.57,70.72,54.57l-0.06-125.5h-46.17v17.86h28.37v84.46c-4.47-2.09-9.25-4.71-14.02-8.04
		c-6.37-4.45-16.11-12.43-20.05-22.55h26.56L142.31,244.02"/>
</g>
</svg>
