<?xml version="1.0" encoding="utf-8"?>
<!-- Generator: Adobe Illustrator 26.5.0, SVG Export Plug-In . SVG Version: 6.00 Build 0)  -->
<svg version="1.1" id="Layer_1" xmlns="http://www.w3.org/2000/svg" xmlns:xlink="http://www.w3.org/1999/xlink" x="0px" y="0px"
	 viewBox="0 0 360 360" style="enable-background:new 0 0 360 360;" xml:space="preserve">
<style type="text/css">
	.st0{fill:#010101;}
</style>
<polygon class="st0" points="333.41,174.12 329.77,176.16 325.9,175.1 322.28,172.48 317.75,176.78 314,176.71 310.71,174.77 
	302.06,172.58 298.4,175.8 294.49,177.05 292.01,181.14 288.47,181.21 285.23,176.75 274.84,176.83 272.36,177.38 269.13,175.92 
	266.22,169 259.63,173.81 257.5,174.43 252.03,171.83 245.94,172.58 241.54,177.56 239.98,173.99 234.04,174.08 231.83,171.35 
	227.45,171.01 225.87,165 219.83,166.74 213.67,163.41 210.32,169 207.14,167.46 207.14,167.37 201.35,165.64 195.57,168.79 
	191.37,172.12 186.62,171.15 183.71,173.74 180.67,174.59 174.96,173.59 170.49,165.98 164.08,168.68 158.36,168.43 155.9,172.53 
	151.21,170.92 148.43,176.06 145.2,174.75 142.99,175.96 141.79,172 136.2,171.84 133.09,168.69 128.56,169.07 125.5,162.32 
	118.31,168.86 116.28,171.62 113.73,172.1 107.91,169.37 103.79,170.87 100.49,173.38 98.36,169.79 93.53,167.34 85.87,168.78 
	81.21,168.9 77.62,164.3 71.39,164.72 68.97,169.6 65.12,170.92 62.6,173.7 54.5,172.18 51.08,170.01 46.47,170.52 42.73,174.2 
	39.23,172.3 35.29,171.14 31.44,173.35 25.07,173.89 31.5,174 35.14,171.97 39.01,173.02 42.63,175.65 47.16,171.35 50.91,171.41 
	54.2,173.35 62.85,175.54 66.51,172.32 70.42,171.08 72.9,166.98 76.44,166.91 79.68,171.37 90.07,171.29 92.55,170.74 95.78,172.2 
	98.69,179.13 105.28,174.32 107.41,173.7 112.87,176.29 118.97,175.54 123.37,170.56 124.93,174.14 130.87,174.04 133.08,176.77 
	137.46,177.11 139.04,183.12 145.08,181.39 151.24,184.71 154.59,179.12 158.38,180.96 162.36,175.52 165.9,175.58 167.46,174.88 
	169.86,178.87 180.27,182.07 187.56,181.34 189.14,179.86 193.3,180.39 199.23,177.08 202.03,174.64 206.99,175.84 209.01,175.6 
	213.7,177.21 216.48,172.06 219.71,173.37 221.92,172.16 223.12,176.12 228.71,176.29 231.82,179.43 236.35,179.05 239.41,185.8 
	246.6,179.26 248.63,176.51 251.18,176.02 257,178.75 261.12,177.25 264.42,174.75 266.55,178.33 271.38,180.78 279.04,179.34 
	283.7,179.22 287.29,183.82 293.52,183.4 295.94,178.52 299.78,177.21 302.31,174.43 310.41,175.95 313.83,178.11 318.44,177.6 
	322.18,173.92 325.68,175.82 329.62,176.99 333.47,174.78 339.84,174.23 "/>
</svg>
