<?xml version="1.0" encoding="utf-8"?>
<!-- Generator: Adobe Illustrator 27.0.0, SVG Export Plug-In . SVG Version: 6.00 Build 0)  -->
<svg version="1.1" id="Layer_1" xmlns="http://www.w3.org/2000/svg" xmlns:xlink="http://www.w3.org/1999/xlink" x="0px" y="0px"
	 viewBox="0 0 576 576" style="enable-background:new 0 0 576 576;" xml:space="preserve">
<style type="text/css">
	.st0{fill:none;stroke:#000000;stroke-width:18;stroke-miterlimit:10;}
	.st1{fill:none;stroke:#000000;stroke-width:2.88;stroke-linecap:round;stroke-linejoin:round;}
</style>
<rect x="139.8" y="79.4" class="st0" width="289.5" height="379"/>
<g>
	<g>
		<g>
			<path class="st1" d="M170.1,116.7c0,0,1.4-0.9,1.4-0.8c0.4,0.6,27.1,10.4,27.4,11.1c0.2,0.4,20.8-12.6,21.1-12.2
				c0.4,0.7,27.9,9.9,28.2,10.6c0.2,0.4,18.5-11.2,18.7-10.8"/>
		</g>
	</g>
</g>
<g>
	<g>
		<g>
			<path class="st1" d="M170.1,173.3c0,0,1.4-0.9,1.4-0.8c0.4,0.7,31.6,7.7,32.1,8.4c0.2,0.4,13.3-8.2,13.5-7.8
				c0.4,0.7,32.9,7.2,33.4,8c0.2,0.4,13.9-8.6,14.2-8.2c0.4,0.7,29.7,9.1,30.1,9.8c0.2,0.4,20.1-12.2,20.4-11.8
				c0.4,0.6,27.5,10.9,27.9,11.5c0,0,1.4-0.9,1.4-0.8"/>
		</g>
	</g>
</g>
<g>
	<g>
		<g>
			<path class="st1" d="M168,205.4c0,0,6.1-3.6,6.1-3.5c0.4,0.7,29.9,9.2,30.3,9.9c0.2,0.4,15.9-9.7,16.1-9.3
				c0.4,0.6,25.9,11.9,26.2,12.6c0.2,0.4,19-11.5,19.2-11.1c0.4,0.7,31.3,8.3,31.7,9c0.2,0.4,13.1-8.1,13.4-7.7
				c0.4,0.8,34.2,6.4,34.7,7.2c0.2,0.4,15.3-9.4,15.6-9c0.4,0.7,28.5,9.6,28.8,10.3c0.2,0.3,11-6.7,11.1-6.4"/>
		</g>
	</g>
</g>
<g>
	<g>
		<g>
			<path class="st1" d="M170.1,230.5c0,0,1.4-0.9,1.4-0.8c0.4,0.6,26.3,11.1,26.6,11.8c0.2,0.4,20.1-12.1,20.3-11.7
				c0.4,0.7,29.4,9.5,29.8,10.2c0.2,0.4,19.5-11.8,19.7-11.4c0.4,0.6,25.6,11.8,25.9,12.4c0.2,0.4,20.3-12.3,20.5-11.9
				c0.4,0.6,26.6,11.3,27,12c0.2,0.4,18.4-11.2,18.7-10.8"/>
		</g>
	</g>
</g>
<g>
	<g>
		<g>
			<path class="st1" d="M168.6,257.7c0,0,4.6-2.7,4.6-2.7c0.4,0.6,26.1,11,26.5,11.6c0.2,0.4,21.3-12.9,21.5-12.4"/>
		</g>
	</g>
</g>
<g>
	<g>
		<g>
			<path class="st1" d="M170.1,283.9c0,0,1.4-0.9,1.4-0.8c0.4,0.7,32,8.5,32.4,9.2c0.2,0.4,17.5-10.7,17.7-10.2
				c0.4,0.7,28,10,28.4,10.7c0.2,0.4,18.4-11.2,18.7-10.8c0.4,0.6,27.4,11,27.7,11.6c0.2,0.4,15.6-9.5,15.8-9.1"/>
		</g>
	</g>
</g>
<g>
	<g>
		<g>
			<path class="st1" d="M167.5,311.7c0,0,3.6-2.1,3.7-2.1c0.4,0.7,28.2,9.8,28.5,10.5c0.2,0.4,16-9.8,16.2-9.4
				c0.4,0.8,33.2,7.4,33.6,8.1c0.2,0.4,16-9.8,16.3-9.4c0.4,0.7,28.4,10.2,28.8,10.9c0.2,0.4,16.2-10,16.5-9.5
				c0.4,0.8,33.2,7.7,33.6,8.4c0.2,0.4,18-11,18.3-10.6"/>
		</g>
	</g>
</g>
<g>
	<g>
		<g>
			<path class="st1" d="M170.1,336.5c0,0,1.4-0.9,1.4-0.8c0.4,0.7,31.3,7.9,31.7,8.6c0.2,0.4,11.9-7.4,12.1-7"/>
		</g>
	</g>
</g>
</svg>
