<?xml version="1.0" encoding="utf-8"?>
<!-- Generator: Adobe Illustrator 26.5.0, SVG Export Plug-In . SVG Version: 6.00 Build 0)  -->
<svg version="1.1" id="Layer_1" xmlns="http://www.w3.org/2000/svg" xmlns:xlink="http://www.w3.org/1999/xlink" x="0px" y="0px"
	 viewBox="0 0 360 360" style="enable-background:new 0 0 360 360;" xml:space="preserve">
<style type="text/css">
	.st0{fill:#010101;}
</style>
<g>
	<path class="st0" d="M162.98,213.73c-6.22,0-14.22-0.65-19.96-3.61c-7.24-3.74-14.36-5.88-19.55-5.88c-4.04,0-11.39,1.56-17.3,2.81
		c-2.66,0.56-5.18,1.1-7.22,1.46c-7.37,1.3-59.46,1.63-59.97,1.63c-1.6,0-7.83,1.61-12.69,3.1c-1.92,0.59-3.95-0.49-4.54-2.41
		c-0.59-1.92,0.49-3.95,2.41-4.54c2.61-0.8,11.4-3.42,14.82-3.42c6.05,0,52.75-0.47,58.7-1.52c1.92-0.34,4.38-0.86,6.98-1.41
		c6.56-1.39,14-2.97,18.8-2.97c8.64,0,18.05,4.19,22.89,6.69c4.72,2.44,12.84,3.28,24.15,2.51l0.61-0.04
		c7.66-0.49,13.14-1.75,18.94-3.09c4.78-1.1,9.73-2.24,15.93-2.91c3.11-0.34,12.21,0.56,25.75,1.96c4.6,0.48,8.95,0.93,11.88,1.17
		c9.1,0.76,15.21-1.75,19.99-4.3c5.6-2.99,19.46-9.19,24.33-10.52c2.46-0.67,11.06-2.64,18.68,0.08
		c5.63,2.01,31.13,14.56,32.21,15.09c1.8,0.89,2.54,3.07,1.65,4.87c-0.89,1.8-3.07,2.54-4.87,1.65
		c-7.27-3.58-27.09-13.22-31.45-14.77c-4.48-1.6-10.33-1-14.33,0.08c-4.01,1.09-17.23,6.93-22.82,9.92
		c-5.38,2.87-12.98,6.05-24.02,5.13c-3-0.25-7.39-0.71-12.03-1.19c-8.62-0.89-21.65-2.24-24.21-1.97
		c-5.77,0.63-10.3,1.67-15.08,2.77c-5.83,1.34-11.86,2.72-20.1,3.26l-0.58,0.04C169.32,213.53,166.42,213.73,162.98,213.73z"/>
</g>
<g>
	<path class="st0" d="M22.3,170.67c-1.67,0-3.03-1.36-3.03-3.03v-62.46c0-1.67,1.36-3.03,3.03-3.03s3.03,1.36,3.03,3.03v62.46
		C25.32,169.31,23.97,170.67,22.3,170.67z"/>
</g>
<g>
	<path class="st0" d="M120.5,160.97c-1.67,0-3.03-1.36-3.03-3.03v-52.77c0-1.67,1.36-3.03,3.03-3.03s3.03,1.36,3.03,3.03v52.77
		C123.53,159.62,122.17,160.97,120.5,160.97z"/>
</g>
<g>
	<path class="st0" d="M32.34,148.86c-1.67,0-3.03-1.36-3.03-3.03v-40.65c0-1.67,1.36-3.03,3.03-3.03c1.67,0,3.03,1.36,3.03,3.03
		v40.65C35.36,147.51,34.01,148.86,32.34,148.86z"/>
</g>
<g>
	<path class="st0" d="M42.13,144.02c-1.67,0-3.03-1.36-3.03-3.03v-35.81c0-1.67,1.36-3.03,3.03-3.03c1.67,0,3.03,1.36,3.03,3.03
		v35.81C45.16,142.66,43.8,144.02,42.13,144.02z"/>
</g>
<g>
	<path class="st0" d="M51.93,139.17c-1.67,0-3.03-1.36-3.03-3.03v-30.96c0-1.67,1.36-3.03,3.03-3.03c1.67,0,3.03,1.36,3.03,3.03
		v30.96C54.96,137.82,53.6,139.17,51.93,139.17z"/>
</g>
<g>
	<path class="st0" d="M61.72,154.92c-1.67,0-3.03-1.36-3.03-3.03v-46.71c0-1.67,1.36-3.03,3.03-3.03c1.67,0,3.03,1.36,3.03,3.03
		v46.71C64.75,153.56,63.4,154.92,61.72,154.92z"/>
</g>
<g>
	<path class="st0" d="M71.52,123.43c-1.67,0-3.03-1.36-3.03-3.03v-15.22c0-1.67,1.36-3.03,3.03-3.03c1.67,0,3.03,1.36,3.03,3.03
		v15.22C74.55,122.07,73.19,123.43,71.52,123.43z"/>
</g>
<g>
	<path class="st0" d="M81.32,122.21c-1.67,0-3.03-1.36-3.03-3.03v-14.01c0-1.67,1.36-3.03,3.03-3.03c1.67,0,3.03,1.36,3.03,3.03
		v14.01C84.34,120.86,82.99,122.21,81.32,122.21z"/>
</g>
<g>
	<path class="st0" d="M91.11,131.9c-1.67,0-3.03-1.36-3.03-3.03v-23.7c0-1.67,1.36-3.03,3.03-3.03s3.03,1.36,3.03,3.03v23.7
		C94.14,130.55,92.78,131.9,91.11,131.9z"/>
</g>
<g>
	<path class="st0" d="M100.91,170.67c-1.67,0-3.03-1.36-3.03-3.03v-62.46c0-1.67,1.36-3.03,3.03-3.03c1.67,0,3.03,1.36,3.03,3.03
		v62.46C103.94,169.31,102.58,170.67,100.91,170.67z"/>
</g>
<g>
	<path class="st0" d="M110.7,165.82c-1.67,0-3.03-1.36-3.03-3.03v-57.61c0-1.67,1.36-3.03,3.03-3.03s3.03,1.36,3.03,3.03v57.61
		C113.73,164.46,112.38,165.82,110.7,165.82z"/>
</g>
<g>
	<path class="st0" d="M130.3,137.96c-1.67,0-3.03-1.36-3.03-3.03v-29.75c0-1.67,1.36-3.03,3.03-3.03s3.03,1.36,3.03,3.03v29.75
		C133.32,136.61,131.97,137.96,130.3,137.96z"/>
</g>
<g>
	<path class="st0" d="M228.26,157.34c-1.67,0-3.03-1.36-3.03-3.03v-49.13c0-1.67,1.36-3.03,3.03-3.03c1.67,0,3.03,1.36,3.03,3.03
		v49.13C231.29,155.99,229.93,157.34,228.26,157.34z"/>
</g>
<g>
	<path class="st0" d="M140.09,152.5c-1.67,0-3.03-1.36-3.03-3.03v-44.29c0-1.67,1.36-3.03,3.03-3.03s3.03,1.36,3.03,3.03v44.29
		C143.12,151.14,141.76,152.5,140.09,152.5z"/>
</g>
<g>
	<path class="st0" d="M149.89,170.67c-1.67,0-3.03-1.36-3.03-3.03v-62.46c0-1.67,1.36-3.03,3.03-3.03c1.67,0,3.03,1.36,3.03,3.03
		v62.46C152.92,169.31,151.56,170.67,149.89,170.67z"/>
</g>
<g>
	<path class="st0" d="M159.68,182.78c-1.67,0-3.03-1.36-3.03-3.03v-74.57c0-1.67,1.36-3.03,3.03-3.03s3.03,1.36,3.03,3.03v74.57
		C162.71,181.42,161.36,182.78,159.68,182.78z"/>
</g>
<g>
	<path class="st0" d="M169.48,114.95c-1.67,0-3.03-1.36-3.03-3.03v-6.74c0-1.67,1.36-3.03,3.03-3.03s3.03,1.36,3.03,3.03v6.74
		C172.51,113.59,171.15,114.95,169.48,114.95z"/>
</g>
<g>
	<path class="st0" d="M179.28,119.79c-1.67,0-3.03-1.36-3.03-3.03v-11.58c0-1.67,1.36-3.03,3.03-3.03s3.03,1.36,3.03,3.03v11.58
		C182.3,118.44,180.95,119.79,179.28,119.79z"/>
</g>
<g>
	<path class="st0" d="M189.07,131.9c-1.67,0-3.03-1.36-3.03-3.03v-23.7c0-1.67,1.36-3.03,3.03-3.03s3.03,1.36,3.03,3.03v23.7
		C192.1,130.55,190.75,131.9,189.07,131.9z"/>
</g>
<g>
	<path class="st0" d="M198.87,145.23c-1.67,0-3.03-1.36-3.03-3.03v-37.02c0-1.67,1.36-3.03,3.03-3.03c1.67,0,3.03,1.36,3.03,3.03
		v37.02C201.9,143.87,200.54,145.23,198.87,145.23z"/>
</g>
<g>
	<path class="st0" d="M208.67,164.61c-1.67,0-3.03-1.36-3.03-3.03v-56.4c0-1.67,1.36-3.03,3.03-3.03s3.03,1.36,3.03,3.03v56.4
		C211.69,163.25,210.34,164.61,208.67,164.61z"/>
</g>
<g>
	<path class="st0" d="M218.46,160.97c-1.67,0-3.03-1.36-3.03-3.03v-52.77c0-1.67,1.36-3.03,3.03-3.03s3.03,1.36,3.03,3.03v52.77
		C221.49,159.62,220.13,160.97,218.46,160.97z"/>
</g>
<g>
	<path class="st0" d="M238.05,160.97c-1.67,0-3.03-1.36-3.03-3.03v-52.77c0-1.67,1.36-3.03,3.03-3.03s3.03,1.36,3.03,3.03v52.77
		C241.08,159.62,239.73,160.97,238.05,160.97z"/>
</g>
<g>
	<path class="st0" d="M336.01,167.03c-1.67,0-3.03-1.36-3.03-3.03v-58.82c0-1.67,1.36-3.03,3.03-3.03c1.67,0,3.03,1.36,3.03,3.03
		V164C339.04,165.68,337.69,167.03,336.01,167.03z"/>
</g>
<g>
	<path class="st0" d="M247.85,136.75c-1.67,0-3.03-1.36-3.03-3.03v-28.54c0-1.67,1.36-3.03,3.03-3.03s3.03,1.36,3.03,3.03v28.54
		C250.88,135.39,249.52,136.75,247.85,136.75z"/>
</g>
<g>
	<path class="st0" d="M257.65,145.23c-1.67,0-3.03-1.36-3.03-3.03v-37.02c0-1.67,1.36-3.03,3.03-3.03c1.67,0,3.03,1.36,3.03,3.03
		v37.02C260.67,143.87,259.32,145.23,257.65,145.23z"/>
</g>
<g>
	<path class="st0" d="M267.44,150.07c-1.67,0-3.03-1.36-3.03-3.03v-41.86c0-1.67,1.36-3.03,3.03-3.03c1.67,0,3.03,1.36,3.03,3.03
		v41.86C270.47,148.72,269.11,150.07,267.44,150.07z"/>
</g>
<g>
	<path class="st0" d="M277.24,118.58c-1.67,0-3.03-1.36-3.03-3.03v-10.37c0-1.67,1.36-3.03,3.03-3.03c1.67,0,3.03,1.36,3.03,3.03
		v10.37C280.27,117.22,278.91,118.58,277.24,118.58z"/>
</g>
<g>
	<path class="st0" d="M287.03,123.43c-1.67,0-3.03-1.36-3.03-3.03v-15.22c0-1.67,1.36-3.03,3.03-3.03s3.03,1.36,3.03,3.03v15.22
		C290.06,122.07,288.71,123.43,287.03,123.43z"/>
</g>
<g>
	<path class="st0" d="M296.83,127.06c-1.67,0-3.03-1.36-3.03-3.03v-18.85c0-1.67,1.36-3.03,3.03-3.03c1.67,0,3.03,1.36,3.03,3.03
		v18.85C299.86,125.7,298.5,127.06,296.83,127.06z"/>
</g>
<g>
	<path class="st0" d="M306.63,154.92c-1.67,0-3.03-1.36-3.03-3.03v-46.71c0-1.67,1.36-3.03,3.03-3.03c1.67,0,3.03,1.36,3.03,3.03
		v46.71C309.65,153.56,308.3,154.92,306.63,154.92z"/>
</g>
<g>
	<path class="st0" d="M316.42,170.67c-1.67,0-3.03-1.36-3.03-3.03v-62.46c0-1.67,1.36-3.03,3.03-3.03c1.67,0,3.03,1.36,3.03,3.03
		v62.46C319.45,169.31,318.09,170.67,316.42,170.67z"/>
</g>
<g>
	<path class="st0" d="M326.22,177.93c-1.67,0-3.03-1.36-3.03-3.03v-69.72c0-1.67,1.36-3.03,3.03-3.03c1.67,0,3.03,1.36,3.03,3.03
		v69.72C329.25,176.58,327.89,177.93,326.22,177.93z"/>
</g>
</svg>
